<svg width="25" height="25" viewBox="0 0 25 25" fill="none" xmlns="http://www.w3.org/2000/svg">
<g clip-path="url(#clip0_358_324)">
<path d="M12.5043 0C5.60083 0 0.0043335 5.5965 0.0043335 12.5C0.0043335 18.362 4.04033 23.281 9.48483 24.632V16.32H6.90733V12.5H9.48483V10.854C9.48483 6.5995 11.4103 4.6275 15.5873 4.6275C16.3793 4.6275 17.7458 4.783 18.3048 4.938V8.4005C18.0098 8.3695 17.4973 8.354 16.8608 8.354C14.8113 8.354 14.0193 9.1305 14.0193 11.149V12.5H18.1023L17.4008 16.32H14.0193V24.9085C20.2088 24.161 25.0048 18.891 25.0048 12.5C25.0043 5.5965 19.4078 0 12.5043 0Z" fill="#9D9D9D"/>
</g>
<defs>
<clipPath id="clip0_358_324">
<rect width="25" height="25" fill="white" transform="translate(0.0043335)"/>
</clipPath>
</defs>
</svg>
