<svg width="26" height="25" viewBox="0 0 26 25" fill="none" xmlns="http://www.w3.org/2000/svg">
<g clip-path="url(#clip0_358_322)">
<path d="M13.0043 2.25098C16.3442 2.25098 16.7397 2.26562 18.0532 2.32422C19.2739 2.37793 19.933 2.58301 20.3725 2.75391C20.9536 2.97852 21.3735 3.25195 21.808 3.68652C22.2475 4.12598 22.5161 4.54102 22.7407 5.12207C22.9116 5.56152 23.1166 6.22559 23.1703 7.44141C23.2289 8.75977 23.2436 9.15527 23.2436 12.4902C23.2436 15.8301 23.2289 16.2256 23.1703 17.5391C23.1166 18.7598 22.9116 19.4189 22.7407 19.8584C22.5161 20.4395 22.2426 20.8594 21.808 21.2939C21.3686 21.7334 20.9536 22.002 20.3725 22.2266C19.933 22.3975 19.269 22.6025 18.0532 22.6563C16.7348 22.7148 16.3393 22.7295 13.0043 22.7295C9.66449 22.7295 9.26898 22.7148 7.95551 22.6563C6.7348 22.6025 6.07562 22.3975 5.63617 22.2266C5.05511 22.002 4.63519 21.7285 4.20062 21.2939C3.76117 20.8545 3.49261 20.4395 3.26801 19.8584C3.09711 19.4189 2.89203 18.7549 2.83832 17.5391C2.77972 16.2207 2.76508 15.8252 2.76508 12.4902C2.76508 9.15039 2.77972 8.75488 2.83832 7.44141C2.89203 6.2207 3.09711 5.56152 3.26801 5.12207C3.49261 4.54102 3.76605 4.12109 4.20062 3.68652C4.64008 3.24707 5.05511 2.97852 5.63617 2.75391C6.07562 2.58301 6.73969 2.37793 7.95551 2.32422C9.26898 2.26562 9.66449 2.25098 13.0043 2.25098ZM13.0043 0C9.61078 0 9.18597 0.0146484 7.85297 0.0732422C6.52484 0.131836 5.61176 0.34668 4.82074 0.654297C3.99554 0.976562 3.2973 1.40137 2.60394 2.09961C1.9057 2.79297 1.4809 3.49121 1.15863 4.31152C0.851013 5.10742 0.636169 6.01562 0.577576 7.34375C0.518982 8.68164 0.504333 9.10645 0.504333 12.5C0.504333 15.8936 0.518982 16.3184 0.577576 17.6514C0.636169 18.9795 0.851013 19.8926 1.15863 20.6836C1.4809 21.5088 1.9057 22.207 2.60394 22.9004C3.2973 23.5938 3.99554 24.0234 4.81586 24.3408C5.61176 24.6484 6.51996 24.8633 7.84808 24.9219C9.18109 24.9805 9.6059 24.9951 12.9995 24.9951C16.393 24.9951 16.8178 24.9805 18.1508 24.9219C19.4789 24.8633 20.392 24.6484 21.183 24.3408C22.0034 24.0234 22.7016 23.5938 23.395 22.9004C24.0883 22.207 24.518 21.5088 24.8354 20.6885C25.143 19.8926 25.3578 18.9844 25.4164 17.6563C25.475 16.3232 25.4897 15.8984 25.4897 12.5049C25.4897 9.11133 25.475 8.68652 25.4164 7.35352C25.3578 6.02539 25.143 5.11231 24.8354 4.32129C24.5278 3.49121 24.103 2.79297 23.4047 2.09961C22.7114 1.40625 22.0131 0.976563 21.1928 0.65918C20.3969 0.351562 19.4887 0.136719 18.1606 0.078125C16.8227 0.0146484 16.3979 0 13.0043 0Z" fill="#9D9D9D"/>
<path d="M13.0043 6.0791C9.45941 6.0791 6.58344 8.95508 6.58344 12.5C6.58344 16.0449 9.45941 18.9209 13.0043 18.9209C16.5493 18.9209 19.4252 16.0449 19.4252 12.5C19.4252 8.95508 16.5493 6.0791 13.0043 6.0791ZM13.0043 16.665C10.7045 16.665 8.83929 14.7998 8.83929 12.5C8.83929 10.2002 10.7045 8.33496 13.0043 8.33496C15.3041 8.33496 17.1694 10.2002 17.1694 12.5C17.1694 14.7998 15.3041 16.665 13.0043 16.665Z" fill="#9D9D9D"/>
<path d="M21.1782 5.8252C21.1782 6.65528 20.5043 7.32422 19.6791 7.32422C18.8491 7.32422 18.1801 6.65039 18.1801 5.8252C18.1801 4.99512 18.8539 4.32617 19.6791 4.32617C20.5043 4.32617 21.1782 5 21.1782 5.8252Z" fill="#9D9D9D"/>
</g>
<defs>
<clipPath id="clip0_358_322">
<rect width="25" height="25" fill="white" transform="translate(0.504333)"/>
</clipPath>
</defs>
</svg>
