<svg width="24" height="25" viewBox="0 0 24 25" fill="none" xmlns="http://www.w3.org/2000/svg">
<g clip-path="url(#clip0_358_321)">
<path d="M12.0043 0C5.37621 0 0.0043335 5.5957 0.0043335 12.5C0.0043335 17.7979 3.1684 22.3193 7.6309 24.1406C7.52777 23.1494 7.42933 21.6357 7.67308 20.5566C7.8934 19.5801 9.07933 14.3457 9.07933 14.3457C9.07933 14.3457 8.7184 13.5986 8.7184 12.4902C8.7184 10.752 9.68402 9.45312 10.8887 9.45312C11.9106 9.45312 12.4075 10.2539 12.4075 11.2158C12.4075 12.29 11.7512 13.8916 11.4137 15.376C11.1325 16.6211 12.0137 17.6367 13.1903 17.6367C15.3231 17.6367 16.9637 15.293 16.9637 11.9141C16.9637 8.9209 14.9012 6.82617 11.9528 6.82617C8.54027 6.82617 6.53402 9.49219 6.53402 12.251C6.53402 13.3252 6.93246 14.4775 7.42933 15.1025C7.52777 15.2246 7.54183 15.3369 7.51371 15.459C7.42465 15.8545 7.2184 16.7041 7.1809 16.875C7.12933 17.1045 7.00746 17.1533 6.77777 17.041C5.27777 16.3135 4.34027 14.0332 4.34027 12.1973C4.34027 8.25195 7.09183 4.63379 12.2668 4.63379C16.4293 4.63379 19.6637 7.72461 19.6637 11.8555C19.6637 16.1621 17.0575 19.6289 13.4387 19.6289C12.2246 19.6289 11.0809 18.9697 10.6871 18.1934C10.6871 18.1934 10.0871 20.5811 9.94183 21.167C9.66996 22.251 8.93871 23.6133 8.45121 24.4434C9.57621 24.8047 10.7668 25 12.0043 25C18.6325 25 24.0043 19.4043 24.0043 12.5C24.0043 5.5957 18.6325 0 12.0043 0Z" fill="#9D9D9D"/>
</g>
<defs>
<clipPath id="clip0_358_321">
<rect width="24" height="25" fill="white" transform="translate(0.0043335)"/>
</clipPath>
</defs>
</svg>
